<?xml version="1.0" encoding="UTF-8"?>
<svg viewBox="0 0 40 40" version="1.1" xmlns="http://www.w3.org/2000/svg" xmlns:xlink="http://www.w3.org/1999/xlink">
    <title>4D46D694-1D15-49F3-8C39-CFCB289DE00D</title>
    <defs>
        <rect id="path-1" x="622" y="119" width="377" height="527"></rect>
        <filter x="-2.9%" y="-1.3%" width="105.8%" height="104.2%" filterUnits="objectBoundingBox" id="filter-2">
            <feOffset dx="0" dy="4" in="SourceAlpha" result="shadowOffsetOuter1"></feOffset>
            <feGaussianBlur stdDeviation="3" in="shadowOffsetOuter1" result="shadowBlurOuter1"></feGaussianBlur>
            <feColorMatrix values="0 0 0 0 0.717079937   0 0 0 0 0.710070371   0 0 0 0 0.710070371  0 0 0 0.5 0" type="matrix" in="shadowBlurOuter1"></feColorMatrix>
        </filter>
    </defs>
    <g id="Page-1" stroke="none" stroke-width="1" fill="none" fill-rule="evenodd">
        <g id="02_Desktop_OrangeBPO" transform="translate(-945.000000, -597.000000)">            
            <g id="Group-3" transform="translate(622.000000, 587.000000)">
                <path d="M4,0 L373,0 C375.209139,-4.05812251e-16 377,1.790861 377,4 L377,60 L377,60 L0,60 L0,4 C-2.705415e-16,1.790861 1.790861,4.05812251e-16 4,0 Z" id="Rectangle-Copy" fill="transparent" transform="translate(188.500000, 30.000000) rotate(-180.000000) translate(-188.500000, -30.000000) "></path>
                <g id="Icons/send" transform="translate(323.000000, 10.000000)" fill="#000000" fill-rule="nonzero">
                    <g id="send" transform="translate(8.000000, 8.000000)">
                        <path d="M23.794125,0.206015625 C23.5952344,0.007078125 23.2968281,-0.05409375 23.0358281,0.05034375 L0.44203125,9.08775 C0.183515625,9.19115625 0.01040625,9.43734375 0.00046875,9.71564063 C-0.009421875,9.99389063 0.145828125,10.25175 0.396328125,10.37325 L9.30576563,14.6942344 L13.6267969,23.6036719 C13.7446406,23.8466719 13.9907344,24 14.2592813,24 C14.267625,24 14.2760156,24 14.2844063,23.9995313 C14.5626094,23.9896406 14.8088906,23.8165313 14.91225,23.5580156 L23.94975,0.964359375 C24.0541875,0.703171875 23.9930156,0.40490625 23.794125,0.206015625 Z M2.44190625,9.80240625 L20.3775,2.62823437 L9.68864063,13.317 L2.44190625,9.80240625 Z M14.1976406,21.5581406 L10.683,14.3113125 L21.3719063,3.62254687 L14.1976406,21.5581406 Z" id="Shape"></path>
                    </g>
                </g>
            </g>
        </g>
    </g>
</svg>