<svg viewBox="0 0 300 301" fill="none" aria-hidden="true" focusable="false">
<mask id="mask0" maskUnits="userSpaceOnUse" x="0" y="0" width="300" height="301">
<circle cx="150" cy="150.855" r="150" fill="white"/>
</mask>
<g mask="url(#mask0)">
<ellipse cx="150.417" cy="339.189" rx="84.5833" ry="85.8334" fill="url(#paint0_linear)"/>
</g>
<path d="M229.771 70.1997H73.7715V122.823H253.771V94.1997C253.771 80.9449 243.026 70.1997 229.771 70.1997Z" fill="#C33400"/>
<path d="M38.3613 105.454V127.618C38.3613 189.207 88.2889 239.134 149.878 239.134C211.467 239.134 261.394 189.207 261.394 127.618V116.385C261.394 98.8905 247.212 84.7081 229.717 84.7081H138.084C130.485 84.7081 123.555 80.3613 120.247 73.5196C116.938 66.6778 110.009 62.3311 102.409 62.3311H81.4841C57.668 62.3311 38.3613 81.6378 38.3613 105.454Z" fill="url(#paint1_linear)"/>
<path d="M173.333 194.379C173.333 201.424 163.073 210.022 150.417 210.022C137.76 210.022 127.5 201.815 127.5 194.379C127.5 186.943 131.191 189.855 151 189.855C169.256 189.855 173.333 187.334 173.333 194.379Z" fill="#172D3F"/>
<rect x="91.4746" y="111.02" width="39.3443" height="52.623" rx="19.6721" fill="#172D3F"/>
<circle opacity="0.9" cx="115.389" cy="137.432" r="6.74055" fill="white"/>
<rect x="169.18" y="111.02" width="39.3443" height="52.623" rx="19.6721" fill="#172D3F"/>
<circle opacity="0.9" cx="193.092" cy="137.432" r="6.74055" fill="white"/>
<defs>
<linearGradient id="paint0_linear" x1="235.187" y1="317.343" x2="65.834" y2="317.343" gradientUnits="userSpaceOnUse">
<stop offset="0" stop-color="#E0C100"/>
<stop offset="1" stop-color="#FFE85C"/>
</linearGradient>
<linearGradient id="paint1_linear" x1="261.64" y1="128.233" x2="38.3613" y2="128.233" gradientUnits="userSpaceOnUse">
<stop offset="0" stop-color="#E0C100"/>
<stop offset="1" stop-color="#FFE85C"/>
</linearGradient>
</defs>
</svg>
