<?xml version="1.0" encoding="UTF-8"?>
<svg viewBox="0 0 32 32" version="1.1" xmlns="http://www.w3.org/2000/svg" xmlns:xlink="http://www.w3.org/1999/xlink">
    <title>6A29FB4C-AC4B-4A11-BE2E-55E19848F06E</title>
    <g id="Page-1" stroke="none" stroke-width="1" fill="none" fill-rule="evenodd">
        <g id="01_Desktop_OrangeBPO" transform="translate(-636.000000, -134.000000)">
            <g id="Group-2" transform="translate(622.000000, 120.000000)">
                <g id="Group" transform="translate(14.000000, 14.000000)">
                    <circle id="Oval" fill="#000000" cx="16" cy="16" r="16"></circle>
                    <g id="charla" transform="translate(6.000000, 8.000000)" fill="#FFFFFF" fill-rule="nonzero">
                        <path d="M18.1423632,5.55600823 L16.0004175,5.55600823 L16.0004175,2.12228242 C16.0004175,0.952050666 15.0484342,0 13.8782698,0 L2.12194572,0 C0.951915987,0 0,0.952050666 0,2.12228242 L0,8.54710927 C0,9.71727368 0.951915987,10.6693243 2.12194572,10.6693243 L3.66625028,10.6693243 L3.66625028,12.8907983 C3.66625028,13.1608984 3.828876,13.404332 4.07843745,13.5076313 C4.16106343,13.5418399 4.24779715,13.5584729 4.33379012,13.5584729 C4.50752691,13.5584729 4.67836809,13.4905943 4.80604442,13.3628506 L6.66590348,11.5025875 L6.66590348,12.6704624 C6.66590348,13.6949034 7.49923401,14.5283686 8.52360766,14.5283686 L13.6927485,14.5283686 L15.8604853,16.6964421 C15.9881617,16.8242531 16.1590028,16.8920643 16.332807,16.8920643 C16.4187999,16.8920643 16.5054663,16.8754314 16.5880923,16.8412228 C16.8376537,16.7379234 17.0002795,16.4944899 17.0002795,16.2243898 L17.0002795,14.5283686 L18.1424305,14.5283686 C19.1667368,14.5283686 20,13.6949034 20,12.6704624 L20,7.41384709 C20,6.3894061 19.1666695,5.55600823 18.1423632,5.55600823 Z M4.33379012,9.33397531 L2.12194572,9.33397531 C1.68827714,9.33397531 1.33534904,8.98097986 1.33534904,8.54717661 L1.33534904,2.12228242 C1.33534904,1.68841182 1.6882098,1.33534904 2.12194572,1.33534904 L13.8783371,1.33534904 C14.3121404,1.33534904 14.6651358,1.68834448 14.6651358,2.12228242 L14.6651358,8.54710927 C14.6651358,8.98091252 14.3122077,9.33390797 13.8783371,9.33390797 L7.22239992,9.33390797 C7.04536348,9.33390797 6.87553241,9.4042781 6.75021296,9.5295302 L5.00146464,11.2786152 L5.00146464,10.0015825 C5.00146464,9.63289686 4.70254309,9.33397531 4.33379012,9.33397531 Z M18.6645836,12.670395 C18.6645836,12.9584749 18.4303757,13.1930196 18.1423632,13.1930196 L16.3326049,13.1930196 C15.9639193,13.1930196 15.6649304,13.4918738 15.6649304,13.8606267 L15.6649304,14.612274 L14.4413655,13.3885744 C14.3162481,13.2633223 14.1463497,13.1930196 13.9692459,13.1930196 L8.52354032,13.1930196 C8.23552783,13.1930196 8.00118518,12.9585422 8.00118518,12.670395 L8.00118518,10.669257 L13.8782698,10.669257 C15.0484342,10.669257 16.0004175,9.71720634 16.0004175,8.54704193 L16.0004175,6.89128993 L18.1423632,6.89128993 C18.4303083,6.89128993 18.6645836,7.12563257 18.6645836,7.41377975 L18.6645836,12.670395 Z" id="Shape"></path>
                    </g>
                </g>
            </g>
        </g>
    </g>
</svg>